<mxfile host="app.diagrams.net" agent="Mozilla/5.0 (Windows NT 10.0; Win64; x64) AppleWebKit/537.36 (KHTML, like Gecko) Chrome/128.0.0.0 YaBrowser/24.10.0.0 Safari/537.36" version="24.8.8">
  <diagram name="Страница — 1" id="FZuVYSKQKKseB5JXQPXO">
    <mxGraphModel dx="1386" dy="783" grid="1" gridSize="10" guides="1" tooltips="1" connect="1" arrows="1" fold="1" page="1" pageScale="1" pageWidth="827" pageHeight="1169" math="0" shadow="0">
      <root>
        <mxCell id="0" />
        <mxCell id="1" parent="0" />
        <mxCell id="bTQ-YHMEX6NcWfC60Obh-1" value="" style="edgeStyle=orthogonalEdgeStyle;rounded=0;orthogonalLoop=1;jettySize=auto;html=1;" parent="1" source="bTQ-YHMEX6NcWfC60Obh-2" target="bTQ-YHMEX6NcWfC60Obh-5" edge="1">
          <mxGeometry relative="1" as="geometry" />
        </mxCell>
        <mxCell id="bTQ-YHMEX6NcWfC60Obh-2" value="Начало" style="strokeWidth=2;html=1;shape=mxgraph.flowchart.terminator;whiteSpace=wrap;" parent="1" vertex="1">
          <mxGeometry x="360" y="40" width="130" height="40" as="geometry" />
        </mxCell>
        <mxCell id="bTQ-YHMEX6NcWfC60Obh-3" value="Конец" style="strokeWidth=2;html=1;shape=mxgraph.flowchart.terminator;whiteSpace=wrap;" parent="1" vertex="1">
          <mxGeometry x="367.5" y="900" width="130" height="40" as="geometry" />
        </mxCell>
        <mxCell id="bTQ-YHMEX6NcWfC60Obh-4" value="" style="edgeStyle=orthogonalEdgeStyle;rounded=0;orthogonalLoop=1;jettySize=auto;html=1;" parent="1" source="bTQ-YHMEX6NcWfC60Obh-5" target="bTQ-YHMEX6NcWfC60Obh-9" edge="1">
          <mxGeometry relative="1" as="geometry" />
        </mxCell>
        <mxCell id="bTQ-YHMEX6NcWfC60Obh-5" value="Ввод: № techniques Mitre" style="shape=parallelogram;perimeter=parallelogramPerimeter;whiteSpace=wrap;html=1;fixedSize=1;" parent="1" vertex="1">
          <mxGeometry x="340" y="120" width="170" height="60" as="geometry" />
        </mxCell>
        <mxCell id="bTQ-YHMEX6NcWfC60Obh-6" value="" style="edgeStyle=orthogonalEdgeStyle;rounded=0;orthogonalLoop=1;jettySize=auto;html=1;" parent="1" source="bTQ-YHMEX6NcWfC60Obh-7" target="bTQ-YHMEX6NcWfC60Obh-3" edge="1">
          <mxGeometry relative="1" as="geometry" />
        </mxCell>
        <mxCell id="bTQ-YHMEX6NcWfC60Obh-7" value="Вывод пустого значения" style="shape=parallelogram;perimeter=parallelogramPerimeter;whiteSpace=wrap;html=1;fixedSize=1;" parent="1" vertex="1">
          <mxGeometry x="372.5" y="820" width="120" height="60" as="geometry" />
        </mxCell>
        <mxCell id="bTQ-YHMEX6NcWfC60Obh-8" value="" style="edgeStyle=orthogonalEdgeStyle;rounded=0;orthogonalLoop=1;jettySize=auto;html=1;" parent="1" source="bTQ-YHMEX6NcWfC60Obh-9" target="bTQ-YHMEX6NcWfC60Obh-12" edge="1">
          <mxGeometry relative="1" as="geometry" />
        </mxCell>
        <mxCell id="bTQ-YHMEX6NcWfC60Obh-9" value="ПО обращается датасет techniques Mitre" style="rounded=0;whiteSpace=wrap;html=1;" parent="1" vertex="1">
          <mxGeometry x="317.5" y="230" width="215" height="60" as="geometry" />
        </mxCell>
        <mxCell id="bTQ-YHMEX6NcWfC60Obh-10" style="edgeStyle=orthogonalEdgeStyle;rounded=0;orthogonalLoop=1;jettySize=auto;html=1;exitX=0;exitY=0.5;exitDx=0;exitDy=0;entryX=0.5;entryY=0;entryDx=0;entryDy=0;" parent="1" source="bTQ-YHMEX6NcWfC60Obh-12" target="bTQ-YHMEX6NcWfC60Obh-13" edge="1">
          <mxGeometry relative="1" as="geometry" />
        </mxCell>
        <mxCell id="bTQ-YHMEX6NcWfC60Obh-12" value="№ techniques&amp;nbsp;найдена?" style="rhombus;whiteSpace=wrap;html=1;" parent="1" vertex="1">
          <mxGeometry x="340" y="320" width="172.5" height="80" as="geometry" />
        </mxCell>
        <mxCell id="bTQ-YHMEX6NcWfC60Obh-13" value="Вывод сообщения об ошибке поиска" style="rounded=0;whiteSpace=wrap;html=1;" parent="1" vertex="1">
          <mxGeometry x="240" y="400" width="120" height="60" as="geometry" />
        </mxCell>
        <mxCell id="bTQ-YHMEX6NcWfC60Obh-25" value="" style="edgeStyle=orthogonalEdgeStyle;rounded=0;orthogonalLoop=1;jettySize=auto;html=1;" parent="1" source="bTQ-YHMEX6NcWfC60Obh-15" target="bTQ-YHMEX6NcWfC60Obh-22" edge="1">
          <mxGeometry relative="1" as="geometry" />
        </mxCell>
        <mxCell id="bTQ-YHMEX6NcWfC60Obh-15" value="&lt;div&gt;Результат&lt;/div&gt;Galeax-CVE2CAPEC" style="rounded=0;whiteSpace=wrap;html=1;" parent="1" vertex="1">
          <mxGeometry x="520" y="490" width="120" height="60" as="geometry" />
        </mxCell>
        <mxCell id="bTQ-YHMEX6NcWfC60Obh-28" value="" style="edgeStyle=orthogonalEdgeStyle;rounded=0;orthogonalLoop=1;jettySize=auto;html=1;" parent="1" source="bTQ-YHMEX6NcWfC60Obh-17" target="bTQ-YHMEX6NcWfC60Obh-26" edge="1">
          <mxGeometry relative="1" as="geometry" />
        </mxCell>
        <mxCell id="bTQ-YHMEX6NcWfC60Obh-17" value="Получение ID CAPEC" style="rounded=0;whiteSpace=wrap;html=1;" parent="1" vertex="1">
          <mxGeometry x="532.5" y="710" width="95" height="60" as="geometry" />
        </mxCell>
        <mxCell id="bTQ-YHMEX6NcWfC60Obh-18" value="Нет" style="text;html=1;align=center;verticalAlign=middle;whiteSpace=wrap;rounded=0;" parent="1" vertex="1">
          <mxGeometry x="300" y="330" width="60" height="30" as="geometry" />
        </mxCell>
        <mxCell id="bTQ-YHMEX6NcWfC60Obh-23" style="edgeStyle=orthogonalEdgeStyle;rounded=0;orthogonalLoop=1;jettySize=auto;html=1;exitX=0.25;exitY=1;exitDx=0;exitDy=0;entryX=0.5;entryY=0;entryDx=0;entryDy=0;" parent="1" source="bTQ-YHMEX6NcWfC60Obh-19" target="bTQ-YHMEX6NcWfC60Obh-21" edge="1">
          <mxGeometry relative="1" as="geometry">
            <Array as="points">
              <mxPoint x="581" y="360" />
            </Array>
          </mxGeometry>
        </mxCell>
        <mxCell id="bTQ-YHMEX6NcWfC60Obh-19" value="Да" style="text;html=1;align=center;verticalAlign=middle;whiteSpace=wrap;rounded=0;" parent="1" vertex="1">
          <mxGeometry x="497.5" y="330" width="60" height="30" as="geometry" />
        </mxCell>
        <mxCell id="bTQ-YHMEX6NcWfC60Obh-20" style="edgeStyle=orthogonalEdgeStyle;rounded=0;orthogonalLoop=1;jettySize=auto;html=1;exitX=0.5;exitY=1;exitDx=0;exitDy=0;entryX=0;entryY=0.5;entryDx=0;entryDy=0;entryPerimeter=0;" parent="1" source="bTQ-YHMEX6NcWfC60Obh-13" target="bTQ-YHMEX6NcWfC60Obh-3" edge="1">
          <mxGeometry relative="1" as="geometry" />
        </mxCell>
        <mxCell id="bTQ-YHMEX6NcWfC60Obh-24" value="" style="edgeStyle=orthogonalEdgeStyle;rounded=0;orthogonalLoop=1;jettySize=auto;html=1;" parent="1" source="bTQ-YHMEX6NcWfC60Obh-21" target="bTQ-YHMEX6NcWfC60Obh-15" edge="1">
          <mxGeometry relative="1" as="geometry" />
        </mxCell>
        <mxCell id="bTQ-YHMEX6NcWfC60Obh-21" value="ПО обращается датасет CAPEC" style="rounded=0;whiteSpace=wrap;html=1;" parent="1" vertex="1">
          <mxGeometry x="512.5" y="400" width="137.5" height="60" as="geometry" />
        </mxCell>
        <mxCell id="bTQ-YHMEX6NcWfC60Obh-29" value="" style="edgeStyle=orthogonalEdgeStyle;rounded=0;orthogonalLoop=1;jettySize=auto;html=1;" parent="1" source="bTQ-YHMEX6NcWfC60Obh-22" target="bTQ-YHMEX6NcWfC60Obh-17" edge="1">
          <mxGeometry relative="1" as="geometry" />
        </mxCell>
        <mxCell id="bTQ-YHMEX6NcWfC60Obh-30" style="edgeStyle=orthogonalEdgeStyle;rounded=0;orthogonalLoop=1;jettySize=auto;html=1;exitX=0;exitY=0.5;exitDx=0;exitDy=0;entryX=0.5;entryY=0;entryDx=0;entryDy=0;" parent="1" source="bTQ-YHMEX6NcWfC60Obh-22" target="bTQ-YHMEX6NcWfC60Obh-7" edge="1">
          <mxGeometry relative="1" as="geometry" />
        </mxCell>
        <mxCell id="bTQ-YHMEX6NcWfC60Obh-22" value="ID CAPEC найден?" style="rhombus;whiteSpace=wrap;html=1;" parent="1" vertex="1">
          <mxGeometry x="493.75" y="585" width="172.5" height="80" as="geometry" />
        </mxCell>
        <mxCell id="bTQ-YHMEX6NcWfC60Obh-26" value="Вывод: ID CAPEC" style="shape=parallelogram;perimeter=parallelogramPerimeter;whiteSpace=wrap;html=1;fixedSize=1;" parent="1" vertex="1">
          <mxGeometry x="520" y="820" width="120" height="60" as="geometry" />
        </mxCell>
        <mxCell id="bTQ-YHMEX6NcWfC60Obh-27" style="edgeStyle=orthogonalEdgeStyle;rounded=0;orthogonalLoop=1;jettySize=auto;html=1;entryX=1;entryY=0.5;entryDx=0;entryDy=0;entryPerimeter=0;" parent="1" source="bTQ-YHMEX6NcWfC60Obh-26" target="bTQ-YHMEX6NcWfC60Obh-3" edge="1">
          <mxGeometry relative="1" as="geometry">
            <Array as="points">
              <mxPoint x="580" y="920" />
            </Array>
          </mxGeometry>
        </mxCell>
        <mxCell id="bTQ-YHMEX6NcWfC60Obh-31" value="Да" style="text;html=1;align=center;verticalAlign=middle;whiteSpace=wrap;rounded=0;" parent="1" vertex="1">
          <mxGeometry x="567.5" y="665" width="60" height="30" as="geometry" />
        </mxCell>
        <mxCell id="bTQ-YHMEX6NcWfC60Obh-32" value="Нет" style="text;html=1;align=center;verticalAlign=middle;whiteSpace=wrap;rounded=0;" parent="1" vertex="1">
          <mxGeometry x="450" y="600" width="60" height="30" as="geometry" />
        </mxCell>
      </root>
    </mxGraphModel>
  </diagram>
</mxfile>
